<svg xmlns="http://www.w3.org/2000/svg" width="1000" height="1000" viewBox="0 0 1000 1000">
  <defs>
    <style>
      .cls-1 {
        fill-rule: evenodd;
      }
    </style>
  </defs>
  <path id="Color_Fill_1" data-name="Color Fill 1" class="cls-1" d="M292.114,82.109c64.532,2.557,94.954,53.187,147.586,65.612,16.11,3.8,9.911-3.486,51.719-7.571,53.056-.332,47.516,3.786,76.946,6.309l75.686-41.638c11.948-5.136,60.451-28.13,69.378-16.4,11.984,23.232-4.769,65.919-10.092,84.538q-10.72,35.327-21.444,70.659c-7.02,29.816,2.3,51.44-4.893,84.385-8.3,37.982-15.333,38.966-29.165,59.456,77.9,38.172,142.661,199.818,111.005,325.535C739.039,791.629,685.7,861.354,649.1,890.9c-23.222,18.744-42.448,39.47-79.469,42.9l23.967-55.517c18.32-59.678,7.816-119.577-12.614-171.6-16.83-42.853-84.521-116.642-75.686-167.815,11.208-64.91,85.38-55.524,89.561-109.774-5.208-22.55-11.349-23.424-21.444-30.282C514.152,358.556,421.432,472.7,411.949,517.418c-31.116,146.72,142.2,196.667,80.731,355.818-9.319,24.129-19.927,47.846-34.058,66.873-40.831-1.324-67.142-22.662-92.084-40.376C290.345,845.618,204.645,718.257,240.4,575.459c14.952-59.722,40.394-106.144,73.162-147.626l44.15-45.424C351.387,354.738,348.476,369.647,330,325c-11.288-50.694-6.35-53.628-6.35-75.076-5.033-13.037-7.024-4.1-14.65-38.924-9.4-36.158-4.21-6.261-8-29C293.118,154.512,279.458,116.105,292.114,82.109Z"/>
</svg>
